<?xml version="1.0" encoding="utf-8"?>
<!-- Generator: Adobe Illustrator 24.3.0, SVG Export Plug-In . SVG Version: 6.00 Build 0)  -->
<svg version="1.1" id="Слой_1" xmlns="http://www.w3.org/2000/svg" xmlns:xlink="http://www.w3.org/1999/xlink" x="0px" y="0px"
	 viewBox="0 0 106.8 98.7" style="enable-background:new 0 0 106.8 98.7;" xml:space="preserve">
<style type="text/css">
	.st0{fill:#134332;}
</style>
<g id="Слой_2_1_">
	<g id="Layer_1">
		<path class="st0" d="M62.4,63c-10.6,0-21.1,0-31.7,0c-1.1,0-1.3,0.3-1.1,1.3c0.4,1.7,0.8,3.4,1.1,5.1c0.1,1,0.5,1.1,1.4,1.1
			c12.8,0,25.7,0,38.5,0c7.6,0,15.2,0,22.8,0c2,0,3.1,1,3,2.7c0,1.1-0.8,2.1-1.9,2.3c-0.5,0.1-1.1,0.2-1.7,0.2c-20.3,0-40.7,0-61,0
			c-3.1,0.2-5.8-2-6.2-5C22.5,55.2,19.2,39.6,16,24c-0.9-4.3-1.8-8.7-2.6-13c-0.1-0.7-0.6-1.2-1.2-1.4c-3.5-1.5-6.9-3-10.4-4.5
			c-2-0.9-2.4-3.2-0.8-4.5c0.7-0.6,1.8-0.8,2.7-0.3c3.9,1.7,7.8,3.4,11.7,5.1c1.7,0.8,2.8,2.3,3,4.2c0.4,2.2,1,4.5,1.4,6.7
			c0.1,0.6,0.4,0.8,0.9,0.8c0.3,0,0.6,0,1,0H101c3,0,4.9,1.3,5.7,3.9c0.2,0.7,0.2,1.5,0.1,2.2c-2.5,11.9-5,23.9-7.4,35.9
			c-0.5,2.2-2.4,3.8-4.6,4c-0.7,0-1.4,0-2.2,0H62.4z M61.2,22.2c-13,0-26,0-38.9,0c-1,0-1.3,0.1-1.1,1.2c2.3,11,4.6,22,6.8,33
			c0.2,1.1,0.6,1.3,1.6,1.3c17,0,34,0,51,0c4.2,0,8.4,0,12.6,0c0.6,0,1-0.1,1.2-0.8c2.3-11.2,4.6-22.3,6.9-33.5
			c0.2-1.2-0.1-1.2-1.1-1.2C87.2,22.2,74.2,22.2,61.2,22.2z"/>
		<path class="st0" d="M44.7,98.7c-5.2,0-9.3-4.3-9.3-9.5c0-5.2,4.3-9.3,9.5-9.3s9.3,4.3,9.3,9.5c0,0,0,0,0,0c0,5.1-4.2,9.3-9.3,9.3
			C44.8,98.7,44.8,98.7,44.7,98.7z M48.9,89.4c0.1-2.2-1.6-4.1-3.9-4.1c-0.1,0-0.2,0-0.3,0c-2.3-0.1-4.2,1.6-4.3,3.9
			c-0.1,2.3,1.6,4.2,3.9,4.3c0.1,0,0.3,0,0.4,0c2.2,0.1,4.1-1.7,4.1-3.9C48.9,89.5,48.9,89.5,48.9,89.4z"/>
		<path class="st0" d="M77.7,80c5.2,0,9.4,4.2,9.4,9.3c0,5.2-4.2,9.4-9.3,9.4s-9.4-4.2-9.4-9.3c0,0,0,0,0,0
			C68.3,84.2,72.5,80,77.7,80z M73.6,89.3c-0.1,2.3,1.7,4.2,4,4.2c2.3,0.1,4.2-1.7,4.2-4c0.1-2.3-1.7-4.2-4-4.2c0,0-0.1,0-0.1,0
			C75.5,85.3,73.7,87,73.6,89.3C73.6,89.2,73.6,89.3,73.6,89.3z"/>
		<path class="st0" d="M61.1,35.8H42.9c-1.2,0.1-2.3-0.5-2.8-1.5c-0.6-1.3-0.1-2.8,1.2-3.4c0.1,0,0.2-0.1,0.3-0.1
			c0.5-0.2,1-0.2,1.5-0.2h36.3c1.1-0.1,2.2,0.3,2.8,1.2c0.8,1.2,0.5,2.8-0.7,3.6c-0.5,0.3-1,0.5-1.5,0.4c-2.1,0.1-4.1,0-6.2,0
			L61.1,35.8z"/>
		<path class="st0" d="M61.2,49.4c-5.4,0-10.9,0-16.3,0c-1.1,0.1-2.1-0.4-2.7-1.3c-0.7-1.2-0.4-2.8,0.9-3.5c0.2-0.1,0.4-0.2,0.5-0.2
			c0.6-0.2,1.2-0.2,1.8-0.2h31.7c0.5,0,1,0,1.5,0.2c1.2,0.3,2.1,1.4,1.9,2.7c-0.1,1.2-1.1,2.2-2.3,2.3c-0.4,0-0.8,0-1.2,0L61.2,49.4
			z"/>
	</g>
</g>
</svg>
