<svg xmlns="http://www.w3.org/2000/svg" viewBox="0 0 106.79 98.71"><g id="Слой_2" data-name="Слой 2"><g id="Layer_1" data-name="Layer 1"><path d="M62.39,63c-10.56,0-21.12,0-31.68,0-1.15,0-1.34.32-1.09,1.34.42,1.69.82,3.39,1.07,5.11.14,1,.55,1.12,1.4,1.12q19.24,0,38.47,0c7.59,0,15.17,0,22.75,0,2,0,3.06,1,3,2.74a2.42,2.42,0,0,1-1.86,2.32,7.07,7.07,0,0,1-1.65.18q-30.5,0-61,0a5.84,5.84,0,0,1-6.22-5C22.45,55.22,19.2,39.64,16,24.05q-1.34-6.51-2.65-13a1.78,1.78,0,0,0-1.19-1.44C8.68,8.12,5.23,6.63,1.8,5.08-.25,4.16-.6,1.9,1,.59A2.47,2.47,0,0,1,3.7.24Q9.55,2.75,15.36,5.3a5.28,5.28,0,0,1,3,4.16c.44,2.25,1,4.49,1.37,6.75.12.6.35.82.93.76.31,0,.63,0,.95,0H101c3,0,4.86,1.31,5.65,3.93a4.61,4.61,0,0,1,.09,2.24Q103,41.05,99.31,59a5.2,5.2,0,0,1-4.64,4c-.72,0-1.43,0-2.15,0ZM61.24,22.21q-19.47,0-38.94,0c-1,0-1.34.08-1.1,1.24q3.48,16.5,6.81,33c.22,1.08.62,1.29,1.62,1.29q25.48,0,51,0c4.21,0,8.41,0,12.62,0,.62,0,1-.07,1.16-.82q3.42-16.76,6.91-33.5c.25-1.17-.14-1.23-1.11-1.23Q80.71,22.24,61.24,22.21Z"/><path d="M44.7,98.71a9.37,9.37,0,1,1,9.45-9.28A9.29,9.29,0,0,1,44.7,98.71Zm4.19-9.31a4,4,0,0,0-4.13-4.14,4.1,4.1,0,1,0,0,8.19A4,4,0,0,0,48.89,89.4Z"/><path d="M77.68,80a9.37,9.37,0,1,1-9.34,9.39A9.37,9.37,0,0,1,77.68,80ZM73.6,89.31a4.12,4.12,0,1,0,4.09-4A4,4,0,0,0,73.6,89.31Z"/><path d="M61.14,35.8H42.92a2.78,2.78,0,0,1-2.84-1.55,2.53,2.53,0,0,1,1.46-3.49,4.68,4.68,0,0,1,1.53-.21H79.39a3,3,0,0,1,2.81,1.2,2.57,2.57,0,0,1-2.25,4c-2.06.07-4.13,0-6.19,0Z"/><path d="M61.23,49.39c-5.44,0-10.88,0-16.32,0a2.85,2.85,0,0,1-2.65-1.27,2.57,2.57,0,0,1,1.4-3.78,5.48,5.48,0,0,1,1.76-.21H77.1a5.32,5.32,0,0,1,1.53.16A2.51,2.51,0,0,1,80.57,47a2.56,2.56,0,0,1-2.31,2.32,11.89,11.89,0,0,1-1.19,0Z"/></g></g></svg>