<svg xmlns="http://www.w3.org/2000/svg" xmlns:xlink="http://www.w3.org/1999/xlink" viewBox="0 0 94.1 94.1"><defs><style>.cls-1{fill:none;}.cls-2{clip-path:url(#clip-path);}.cls-3{fill:#fff;}</style><clipPath id="clip-path" transform="translate(0.02 -0.29)"><rect class="cls-1" width="94.08" height="94.38"/></clipPath></defs><g id="Слой_2" data-name="Слой 2"><g id="Layer_1" data-name="Layer 1"><g class="cls-2"><path class="cls-3" d="M47,94.39A47.05,47.05,0,1,0,0,47.34,47,47,0,0,0,47,94.39ZM47,6.17A41.22,41.22,0,1,1,5.86,47.34,41.21,41.21,0,0,1,47,6.17Z" transform="translate(0.02 -0.29)"/></g><path class="cls-3" d="M53.48,70.07a2.92,2.92,0,0,0,4.16,0,3,3,0,0,0,0-4.2L39.42,47.39,57.64,28.91a3,3,0,0,0,0-4.21,2.94,2.94,0,0,0-4.16,0L33.19,45.29a3,3,0,0,0,0,4.2Z" transform="translate(0.02 -0.29)"/></g></g></svg>