<svg xmlns="http://www.w3.org/2000/svg" xmlns:xlink="http://www.w3.org/1999/xlink" viewBox="0 0 94.1 94.1"><defs><style>.cls-1{fill:none;}.cls-2{clip-path:url(#clip-path);}</style><clipPath id="clip-path" transform="translate(0 0.02)"><rect class="cls-1" width="94.08" height="94.38"/></clipPath></defs><g id="Слой_2" data-name="Слой 2"><g id="Layer_1" data-name="Layer 1"><g class="cls-2"><path d="M47.05,0A47.05,47.05,0,1,0,94.1,47,47,47,0,0,0,47.05,0Zm0,88.22A41.22,41.22,0,1,1,88.22,47,41.21,41.21,0,0,1,47.05,88.2Z" transform="translate(0 0.02)"/></g><path d="M40.6,24.31a2.91,2.91,0,0,0-4.15,0,3,3,0,0,0,0,4.2L54.66,47,36.44,65.47a3,3,0,0,0,0,4.2,2.92,2.92,0,0,0,4.16,0L60.89,49.09a3,3,0,0,0,0-4.2Z" transform="translate(0 0.02)"/></g></g></svg>