<svg xmlns="http://www.w3.org/2000/svg" xmlns:xlink="http://www.w3.org/1999/xlink" viewBox="0 0 80.63 80.54"><defs><style>.cls-1{fill:none;}.cls-2{clip-path:url(#clip-path);}</style><clipPath id="clip-path" transform="translate(0 -0.1)"><rect class="cls-1" width="80.64" height="81.04"/></clipPath></defs><g id="Слой_2" data-name="Слой 2"><g id="Layer_1" data-name="Layer 1"><g class="cls-2"><path d="M46.18,40.43l33.14-33a4,4,0,0,0,0-5.69,4.09,4.09,0,0,0-5.74,0L40.47,34.71,7.05,1.29A4.07,4.07,0,0,0,1.31,7.05L34.7,40.45,1.19,73.77a4,4,0,0,0,0,5.69,4.09,4.09,0,0,0,5.74,0l33.48-33.3L73.7,79.45a4.07,4.07,0,0,0,5.74-5.76Z" transform="translate(0 -0.1)"/></g></g></g></svg>