<svg xmlns="http://www.w3.org/2000/svg" xmlns:xlink="http://www.w3.org/1999/xlink" viewBox="0 0 78.9 78.9"><defs><style>.cls-1{fill:none;}.cls-2{clip-path:url(#clip-path);}</style><clipPath id="clip-path" transform="translate(0 0.01)"><rect class="cls-1" width="78.88" height="79.13"/></clipPath></defs><g id="Слой_2" data-name="Слой 2"><g id="Layer_1" data-name="Layer 1"><g class="cls-2"><path d="M76.43,54.23A2.46,2.46,0,0,0,74,56.69V74h-69V56.69a2.47,2.47,0,0,0-4.93,0V76.42a2.46,2.46,0,0,0,2.47,2.46h74a2.47,2.47,0,0,0,2.47-2.46V56.69a2.47,2.47,0,0,0-2.47-2.46Z" transform="translate(0 0.01)"/><path d="M37.65,58.44a2.52,2.52,0,0,0,3.52,0l17.26-17a2.44,2.44,0,0,0,0-3.48,2.49,2.49,0,0,0-3.52,0l-13,12.82V2.45a2.49,2.49,0,0,0-5,0V50.76l-13-12.82a2.5,2.5,0,0,0-3.53,0,2.44,2.44,0,0,0,0,3.48Z" transform="translate(0 0.01)"/></g></g></g></svg>