<?xml version="1.0" encoding="utf-8"?>
<!-- Generator: Adobe Illustrator 24.3.0, SVG Export Plug-In . SVG Version: 6.00 Build 0)  -->
<svg version="1.1" id="Слой_1" xmlns="http://www.w3.org/2000/svg" xmlns:xlink="http://www.w3.org/1999/xlink" x="0px" y="0px"
	 viewBox="0 0 78.9 78.9" style="enable-background:new 0 0 78.9 78.9;" xml:space="preserve">
<style type="text/css">
	.st0{clip-path:url(#SVGID_2_);}
	.st1{fill:#134332;}
</style>
<g id="Слой_2_1_">
	<g id="Layer_1">
		<g>
			<defs>
				<rect id="SVGID_1_" y="0" width="78.9" height="79.1"/>
			</defs>
			<clipPath id="SVGID_2_">
				<use xlink:href="#SVGID_1_"  style="overflow:visible;"/>
			</clipPath>
			<g class="st0">
				<path class="st1" d="M76.4,54.2c-1.3,0-2.4,1.1-2.4,2.5V74H5V56.7c-0.1-1.4-1.3-2.4-2.6-2.3c-1.2,0.1-2.2,1.1-2.3,2.3v19.7
					c0,1.4,1.1,2.5,2.5,2.5c0,0,0,0,0,0h74c1.4,0,2.5-1.1,2.5-2.5V56.7c0-1.4-1.1-2.5-2.5-2.5H76.4z"/>
				<path class="st1" d="M37.7,58.4c1,1,2.5,1,3.5,0l17.3-17c1-0.9,1-2.5,0-3.5c0,0,0,0,0,0c-1-1-2.5-1-3.5,0l-13,12.8V2.5
					c0-1.4-1.1-2.5-2.5-2.5s-2.5,1.1-2.5,2.5v48.3l-13-12.8c-1-1-2.6-1-3.5,0c-1,0.9-1,2.5,0,3.5c0,0,0,0,0,0L37.7,58.4z"/>
			</g>
		</g>
	</g>
</g>
</svg>
