<?xml version="1.0" encoding="utf-8"?>
<!-- Generator: Adobe Illustrator 24.3.0, SVG Export Plug-In . SVG Version: 6.00 Build 0)  -->
<svg version="1.1" id="Слой_1" xmlns="http://www.w3.org/2000/svg" xmlns:xlink="http://www.w3.org/1999/xlink" x="0px" y="0px"
	 viewBox="0 0 72.5 72.4" style="enable-background:new 0 0 72.5 72.4;" xml:space="preserve">
<style type="text/css">
	.st0{fill:#134332;}
</style>
<g id="Слой_2_1_">
	<g id="Layer_1">
		<g id="HXR5Ch">
			<path class="st0" d="M45,59.3c0-3.8,0-7.7,0-11.6c0-0.4,0.1-0.5,0.5-0.5c2.5,0,5.1,0,7.6,0c0.3,0,0.5-0.1,0.5-0.4
				c0.4-3,0.8-6,1.2-9c0.1-0.4-0.2-0.4-0.4-0.4c-2.9,0-5.8,0-8.8,0c-0.5,0-0.6-0.1-0.6-0.6c0-2.2-0.1-4.5,0.1-6.7
				c-0.1-2,1.5-3.7,3.4-3.7c0.1,0,0.2,0,0.3,0c1.9-0.1,3.8,0,5.7,0c0.5,0,0.6-0.1,0.6-0.6c0-2.6,0-5.2,0-7.8c0-0.4-0.1-0.5-0.5-0.5
				c-2.5-0.2-5-0.4-7.5-0.3c-2.9-0.1-5.8,0.9-8.1,2.7c-2.2,1.8-3.6,4.4-4,7.2c-0.2,1.1-0.3,2.1-0.3,3.2c0,2.2,0,4.3,0,6.5
				c0,0.4-0.1,0.6-0.6,0.6c-2.5,0-5,0-7.4,0c-0.4,0-0.5,0.1-0.5,0.5c0,3,0,5.9,0,8.8c0,0.4,0.1,0.5,0.5,0.5c2.5,0,5,0,7.5,0
				c0.4,0,0.5,0.1,0.5,0.5c0,8.1,0,16.1,0,24.2c0,0.4-0.1,0.5-0.5,0.4c-8.4-0.4-16.5-3.8-22.7-9.5c-5.7-5.1-9.6-12-11-19.6
				c-2.2-11.5,0.5-21.8,8.1-30.7c5.4-6.6,13-10.9,21.4-12.1C42.1-1.4,52.5,1.8,61.3,10c5.7,5.2,9.4,12.2,10.6,19.9
				C74,42.6,70.3,53.6,61,62.6c-4.3,4.1-9.6,7.1-15.4,8.6h-0.1C45,71.3,45,71.3,45,70.8V59.3z"/>
		</g>
	</g>
</g>
</svg>
