<svg xmlns="http://www.w3.org/2000/svg" viewBox="0 0 72.48 72.36"><defs><style>.cls-1{fill:#fff;}</style></defs><g id="Слой_2" data-name="Слой 2"><g id="Layer_1" data-name="Layer 1"><g id="HXR5Ch"><path class="cls-1" d="M45,59.26c0-3.85,0-7.71,0-11.56,0-.4.1-.51.5-.51,2.54,0,5.08,0,7.62,0,.34,0,.47-.1.51-.44q.57-4.52,1.17-9c.06-.42-.15-.4-.43-.4-2.92,0-5.84,0-8.75,0-.46,0-.6-.1-.58-.57.05-2.24-.08-4.48.07-6.71a3.59,3.59,0,0,1,3.73-3.74c1.91-.14,3.81,0,5.72,0,.47,0,.57-.14.56-.58,0-2.59,0-5.17,0-7.76,0-.36-.09-.49-.47-.52a66.46,66.46,0,0,0-7.47-.32,12.69,12.69,0,0,0-8.09,2.72,11.47,11.47,0,0,0-4,7.23,18.14,18.14,0,0,0-.26,3.21c0,2.18,0,4.35,0,6.53,0,.44-.08.59-.56.59-2.48,0-5,0-7.44,0-.41,0-.51.11-.51.51q0,4.43,0,8.85c0,.42.13.52.54.52,2.49,0,5,0,7.48,0,.37,0,.49.09.49.48q0,12.11,0,24.22c0,.38-.1.47-.48.45a35.67,35.67,0,0,1-22.68-9.51,34.58,34.58,0,0,1-11-19.57c-2.15-11.47.52-21.8,8.1-30.71A34.47,34.47,0,0,1,30.2.52C42.06-1.35,52.49,1.82,61.27,10A34.09,34.09,0,0,1,71.91,29.85C74,42.62,70.33,53.61,61,62.62a34.86,34.86,0,0,1-15.36,8.56l-.13,0c-.51.13-.51.13-.51-.39Z"/></g></g></g></svg>