<svg xmlns="http://www.w3.org/2000/svg" xmlns:xlink="http://www.w3.org/1999/xlink" viewBox="0 0 94.1 94.1"><defs><style>.cls-1{fill:none;}.cls-2{clip-path:url(#clip-path);}.cls-3{fill:#222220;}</style><clipPath id="clip-path" transform="translate(0 0.02)"><rect class="cls-1" width="94.08" height="94.38"/></clipPath></defs><g id="Слой_2" data-name="Слой 2"><g id="Layer_1" data-name="Layer 1"><g class="cls-2"><path d="M47.05,0A47.05,47.05,0,1,0,94.1,47,47,47,0,0,0,47.05,0Zm0,88.22A41.22,41.22,0,1,1,88.22,47,41.21,41.21,0,0,1,47.05,88.2Z" transform="translate(0 0.02)"/></g><path class="cls-3" d="M47.08,32.52A4.42,4.42,0,0,1,42.56,28a4.45,4.45,0,0,1,1.3-3.25,4.28,4.28,0,0,1,3.22-1.33,4.24,4.24,0,0,1,3.15,1.33A4.48,4.48,0,0,1,51.52,28a4.38,4.38,0,0,1-1.29,3.22A4.32,4.32,0,0,1,47.08,32.52ZM50.66,71H43.49V38.36h7.17Z" transform="translate(0 0.02)"/></g></g></svg>