<?xml version="1.0" encoding="utf-8"?>
<!-- Generator: Adobe Illustrator 24.3.0, SVG Export Plug-In . SVG Version: 6.00 Build 0)  -->
<svg version="1.1" id="Слой_1" xmlns="http://www.w3.org/2000/svg" xmlns:xlink="http://www.w3.org/1999/xlink" x="0px" y="0px"
	 viewBox="0 0 94.1 94.1" style="enable-background:new 0 0 94.1 94.1;" xml:space="preserve">
<style type="text/css">
	.st0{clip-path:url(#SVGID_2_);}
	.st1{fill:#134332;}
</style>
<g id="Слой_2_1_">
	<g id="Layer_1">
		<g>
			<defs>
				<rect id="SVGID_1_" y="0" width="94.1" height="94.4"/>
			</defs>
			<clipPath id="SVGID_2_">
				<use xlink:href="#SVGID_1_"  style="overflow:visible;"/>
			</clipPath>
			<g class="st0">
				<path class="st1" d="M47,0C21.1,0,0,21.1,0,47.1s21.1,47,47.1,47s47-21.1,47-47.1c0,0,0,0,0,0C94.1,21.1,73.1,0,47,0
					C47.1,0,47.1,0,47,0z M47,88.2c-22.8,0-41.2-18.4-41.3-41.2C5.8,24.3,24.2,5.8,47,5.8c22.8,0,41.2,18.4,41.3,41.2c0,0,0,0,0,0
					C88.2,69.8,69.8,88.2,47,88.2L47,88.2z"/>
			</g>
		</g>
		<path class="st1" d="M47.1,32.5c-2.4,0.1-4.5-1.9-4.5-4.3c0-0.1,0-0.1,0-0.2c0-1.2,0.4-2.4,1.3-3.2c0.8-0.9,2-1.4,3.2-1.3
			c1.2,0,2.3,0.5,3.2,1.3c0.9,0.9,1.3,2,1.3,3.2c0,1.2-0.4,2.4-1.3,3.2C49.4,32.1,48.3,32.6,47.1,32.5z M50.7,71h-7.2V38.4h7.2
			L50.7,71z"/>
	</g>
</g>
</svg>
