<svg xmlns="http://www.w3.org/2000/svg" viewBox="0 0 70.78 70.78"><defs><style>.cls-1{fill:#fff;}</style></defs><g id="Слой_2" data-name="Слой 2"><g id="Layer_1" data-name="Layer 1"><g id="AbGhep.tif"><path class="cls-1" d="M19.34,0H51.46a.32.32,0,0,0,.23.05,18.76,18.76,0,0,1,4.45.81A20.47,20.47,0,0,1,68,10.21,19.72,19.72,0,0,1,70.63,18l.15,1.35V51.45c-.06.07,0,.15,0,.23a17.83,17.83,0,0,1-.47,3.17,20.19,20.19,0,0,1-6.43,10.76,20,20,0,0,1-13.49,5.16q-14.78,0-29.56,0c-.55,0-1.1,0-1.66,0a20.06,20.06,0,0,1-5.14-1,20.3,20.3,0,0,1-8.87-5.93A19.87,19.87,0,0,1,0,50.46c0-10,0-20.09,0-30.13a19.4,19.4,0,0,1,.63-4.86A20.3,20.3,0,0,1,7.54,4.66,20.12,20.12,0,0,1,17.94.16ZM35.4,5.45H20.75a14.42,14.42,0,0,0-6.63,1.44C8.54,9.7,5.55,14.28,5.48,20.52c-.1,9.91,0,19.82,0,29.73a14.86,14.86,0,0,0,1.07,5.59,15,15,0,0,0,14,9.49H50a18.23,18.23,0,0,0,2.33-.15,14.33,14.33,0,0,0,6.73-2.69,14.76,14.76,0,0,0,6.28-12.38c0-9.81,0-19.63,0-29.45A15.77,15.77,0,0,0,64.91,17,15,15,0,0,0,50.42,5.46C45.41,5.41,40.4,5.45,35.4,5.45Z"/><path class="cls-1" d="M54.45,35.4A19.06,19.06,0,1,1,35.7,16.33,19.11,19.11,0,0,1,54.45,35.4Zm-19-13.62A13.61,13.61,0,1,0,49,35.4,13.58,13.58,0,0,0,35.41,21.78Z"/><path class="cls-1" d="M59.9,13.62a2.73,2.73,0,1,1-2.7-2.73A2.72,2.72,0,0,1,59.9,13.62Z"/></g></g></g></svg>