<?xml version="1.0" encoding="utf-8"?>
<!-- Generator: Adobe Illustrator 24.3.0, SVG Export Plug-In . SVG Version: 6.00 Build 0)  -->
<svg version="1.1" id="Слой_1" xmlns="http://www.w3.org/2000/svg" xmlns:xlink="http://www.w3.org/1999/xlink" x="0px" y="0px"
	 viewBox="0 0 70.8 70.8" style="enable-background:new 0 0 70.8 70.8;" xml:space="preserve">
<style type="text/css">
	.st0{fill:#134332;}
</style>
<g id="Слой_2_1_">
	<g id="Layer_1">
		<g id="AbGhep.tif">
			<path class="st0" d="M19.3,0h32.1c0.1,0,0.1,0.1,0.2,0.1c1.5,0.1,3,0.4,4.5,0.8c5,1.5,9.2,4.8,11.9,9.4c1.4,2.4,2.3,5,2.6,7.8
				l0.2,1.4v32.1c-0.1,0.1,0,0.2,0,0.2c-0.1,1.1-0.2,2.1-0.5,3.2c-0.9,4.2-3.2,7.9-6.4,10.8c-3.7,3.3-8.5,5.2-13.5,5.2
				c-9.9,0-19.7,0-29.6,0c-0.5,0-1.1,0-1.7,0c-1.7-0.1-3.5-0.4-5.1-1c-3.4-1.2-6.5-3.2-8.9-5.9C1.8,60.2,0,55.4,0,50.5
				c0-10,0-20.1,0-30.1c0-1.6,0.2-3.3,0.6-4.9c1.1-4.3,3.5-8,6.9-10.8c3-2.5,6.6-4,10.4-4.5L19.3,0z M35.4,5.4H20.8
				c-2.3-0.1-4.6,0.4-6.6,1.4c-5.6,2.8-8.6,7.4-8.6,13.6c-0.1,9.9,0,19.8,0,29.7c0,1.9,0.4,3.8,1.1,5.6c2.3,5.7,7.8,9.5,14,9.5H50
				c0.8,0,1.6-0.1,2.3-0.2c2.4-0.3,4.8-1.2,6.7-2.7c4-2.8,6.4-7.5,6.3-12.4c0-9.8,0-19.6,0-29.5c0-1.2-0.1-2.5-0.4-3.7
				c-1.6-6.7-7.6-11.5-14.5-11.5C45.4,5.4,40.4,5.4,35.4,5.4z"/>
			<path class="st0" d="M54.5,35.4c0,10.5-8.5,19.1-19.1,19c-10.5,0-19.1-8.5-19-19.1c0-10.5,8.5-19.1,19.1-19c0.1,0,0.2,0,0.3,0
				C46.1,16.5,54.4,25,54.5,35.4z M35.5,21.8c-7.5,0-13.6,6-13.7,13.5c0,7.5,6,13.6,13.5,13.7S49,43,49,35.4c0,0,0,0,0,0
				C49,27.9,43,21.8,35.5,21.8C35.4,21.8,35.4,21.8,35.5,21.8L35.5,21.8z"/>
			<path class="st0" d="M59.9,13.6c0,1.5-1.2,2.7-2.7,2.7c-1.5,0-2.7-1.2-2.7-2.7s1.2-2.7,2.7-2.7c0,0,0,0,0,0
				C58.7,10.9,59.9,12.1,59.9,13.6z"/>
		</g>
	</g>
</g>
</svg>
