<svg xmlns="http://www.w3.org/2000/svg" viewBox="0 0 102.28 110.07"><defs><style>.cls-1{fill:#c8392c;}</style></defs><g id="Слой_2" data-name="Слой 2"><g id="Layer_1" data-name="Layer 1"><path class="cls-1" d="M83.71,91.42c10.48-10.88,16-23.91,14.88-39.1-1.69-22.6-13.54-38.12-34.78-46-18.17-6.75-44.5-2-59.5,20L1.64,24.54C14.78,3.21,46.91-8.53,74.8,7.35c27.59,15.71,36,52.34,17.83,78.82s-53.22,30.3-75.82,14.58l1.75-2.64c22.85,13,44.13,10.9,64.14-5.62a6,6,0,0,1,.64-.56L71.48,92V81.63c-10.72,8.74-22.37,11.48-35.26,7.48a34.51,34.51,0,0,1-19.85-15.9A35.8,35.8,0,0,1,72.32,29.52L63.68,38A23.58,23.58,0,1,0,35.42,75.36a23.37,23.37,0,0,0,32.06-8.49H50.7V55.12H83.13"/><path class="cls-1" d="M90.91,37.48l-6.09,2.44c-5.28-12-14-20.14-26.6-23.78a38.62,38.62,0,0,0-28,2.28A40.49,40.49,0,0,0,62.32,92.71l2.41,6c-13.32,6-33.39,5-48.27-7.89A47.21,47.21,0,0,1,50.06,7.89C70.84,9.18,85.78,23.23,90.91,37.48Z"/></g></g></svg>