<svg xmlns="http://www.w3.org/2000/svg" viewBox="0 0 126.76 79.12"><defs><style>.cls-1{fill:#124332;}</style></defs><g id="Слой_2" data-name="Слой 2"><g id="Layer_1" data-name="Layer 1"><path class="cls-1" d="M49.6,69.87h5.33a2.25,2.25,0,0,0,.3.75c1.86,2.85,4.19,3.84,6.78,2.79s3.7-3.37,3.15-6.61c-5.43,2.62-10.09,1.82-13.36-2.3a10.65,10.65,0,0,1,.13-13.38c3.29-4,8-4.75,13.33-2.09l.15-1.74h5.25v1.5c.06,6.49,0,13,0,19.48a10.3,10.3,0,0,1-2.16,6.59c-2.8,3.5-6.43,4.95-10.83,3.93A10.13,10.13,0,0,1,49.82,71,6.1,6.1,0,0,1,49.6,69.87Zm15.73-12a5.25,5.25,0,1,0-10.49,0,5.25,5.25,0,1,0,10.49,0Z"/><path class="cls-1" d="M21.5,18.41H15.37c0-1.87,0-3.62,0-5.39.46,0,.87,0,1.26,0H27.05V28.37H22l-.17-1.82C17.69,29,13.45,29.7,9,28.09a13.35,13.35,0,0,1-7.28-6.25,13.75,13.75,0,0,1,21.16-17L18.52,8.75a4.23,4.23,0,0,0-1-.81A8.09,8.09,0,1,0,19.57,20.8,30.08,30.08,0,0,0,21.5,18.41Z"/><path class="cls-1" d="M45,9.29l.13-2h5.59V28.41H45.1l-.16-1.92a8.63,8.63,0,0,1-7.76,1.68,10.59,10.59,0,0,1-5.08-17.8C35.66,6.81,40.47,6.35,45,9.29Zm-5.3,3.32a5.26,5.26,0,1,0,5.16,5.3A5.26,5.26,0,0,0,39.65,12.61Z"/><path class="cls-1" d="M90.12,19.82H75.07c.48,2.61,3.88,4.45,6.33,3,1.08-.68,2.11-1.36,2.11-1.36s2.75.93,4.13,1.36c.33.1.64.23,1,.35-1.55,4.2-6.95,6.42-12,5A10.6,10.6,0,0,1,81.45,7.5C87.09,8.42,90.77,13.55,90.12,19.82ZM84.3,16a4.9,4.9,0,0,0-5-3.3A4.41,4.41,0,0,0,75.11,16Z"/><path class="cls-1" d="M106.94,7.28c2,0,3.66-.09,5.31.06a2.12,2.12,0,0,1,1.37,1.15c1.13,2.5,2.15,5,3.4,8,.77-2,1.4-3.63,2-5.25,1.49-4,1.49-4,5.8-4h1.94c-.17.61-.32,1-.47,1.44-2.54,6.77-5.07,13.53-7.64,20.28a11.24,11.24,0,0,1-10.8,7.53V31a6.09,6.09,0,0,0,5.77-5.13,4.73,4.73,0,0,0-.07-2.59c-1.9-4.74-3.92-9.42-5.89-14.13C107.44,8.61,107.26,8.09,106.94,7.28Z"/><path class="cls-1" d="M26.34,68.51A10.58,10.58,0,1,1,37,57.92,10.62,10.62,0,0,1,26.34,68.51ZM31.6,57.92a5.24,5.24,0,1,0-10.48,0,5.24,5.24,0,1,0,10.48,0Z"/><path class="cls-1" d="M83,68.51A10.58,10.58,0,1,1,93.59,57.9,10.48,10.48,0,0,1,83,68.51Zm-.07-15.85A5.36,5.36,0,0,0,77.74,58a5.29,5.29,0,1,0,10.57-.16A5.38,5.38,0,0,0,82.94,52.66Z"/><path class="cls-1" d="M4.76,47.36V40h5.66v7.29h4.73v5.65H10.49V68.42H4.76V53.05H.13V47.36Z"/><path class="cls-1" d="M97.73,28.43H92.11v-21h5.55l.12,2.12a17.23,17.23,0,0,1,3.16-2.08,8.64,8.64,0,0,1,3.92-.62V12.7l-1.54.29a6.89,6.89,0,0,0-5.59,6.88C97.72,22.67,97.73,25.48,97.73,28.43Z"/><path class="cls-1" d="M59,28.77H53.4V0H59Z"/><path class="cls-1" d="M67.24,28.77H61.68V0h5.56Z"/></g></g></svg>