<?xml version="1.0" encoding="utf-8"?>
<!-- Generator: Adobe Illustrator 24.3.0, SVG Export Plug-In . SVG Version: 6.00 Build 0)  -->
<svg version="1.1" id="Слой_1" xmlns="http://www.w3.org/2000/svg" xmlns:xlink="http://www.w3.org/1999/xlink" x="0px" y="0px"
	 viewBox="0 0 164.2 80.7" style="enable-background:new 0 0 164.2 80.7;" xml:space="preserve">
<style type="text/css">
	.st0{clip-path:url(#SVGID_2_);}
	.st1{fill:#134332;}
</style>
<g id="Слой_2_1_">
	<g id="Layer_1">
		<g>
			<defs>
				<rect id="SVGID_1_" x="0" y="0" width="164.6" height="80.7"/>
			</defs>
			<clipPath id="SVGID_2_">
				<use xlink:href="#SVGID_1_"  style="overflow:visible;"/>
			</clipPath>
			<g class="st0">
				<path class="st1" d="M121.7,1.1c-1.4,1.4-1.4,3.8,0,5.2l30,30.3H3.7c-2,0-3.7,1.7-3.7,3.7S1.6,44,3.7,44h148.1l-30,30.3
					c-1.4,1.4-1.4,3.8,0,5.2c1.4,1.4,3.7,1.4,5.2,0c0,0,0,0,0,0L163.2,43c1.4-1.5,1.4-3.8,0-5.2L126.9,1.1
					C125.5-0.4,123.2-0.4,121.7,1.1C121.8,1.1,121.7,1.1,121.7,1.1C120.3,2.5,123.2-0.4,121.7,1.1z"/>
			</g>
		</g>
	</g>
</g>
</svg>
