<svg xmlns="http://www.w3.org/2000/svg" xmlns:xlink="http://www.w3.org/1999/xlink" viewBox="0 0 164.25 80.69"><defs><style>.cls-1{fill:none;}.cls-2{clip-path:url(#clip-path);}</style><clipPath id="clip-path" transform="translate(0.01 -0.01)"><rect class="cls-1" width="164.61" height="80.69"/></clipPath></defs><g id="Слой_2" data-name="Слой 2"><g id="Layer_1" data-name="Layer 1"><g class="cls-2"><path d="M121.72,1.09a3.72,3.72,0,0,0,0,5.23l30,30.33H3.66a3.7,3.7,0,0,0,0,7.4H151.75l-30,30.33a3.71,3.71,0,0,0,0,5.23,3.65,3.65,0,0,0,5.18,0L163.18,43a3.76,3.76,0,0,0,0-5.24L126.91,1.09a3.64,3.64,0,0,0-5.19,0c-1.43,1.45,1.44-1.45,0,0Z" transform="translate(0.01 -0.01)"/></g></g></g></svg>