<?xml version="1.0" encoding="utf-8"?>
<!-- Generator: Adobe Illustrator 24.3.0, SVG Export Plug-In . SVG Version: 6.00 Build 0)  -->
<svg version="1.1" id="Слой_1" xmlns="http://www.w3.org/2000/svg" xmlns:xlink="http://www.w3.org/1999/xlink" x="0px" y="0px"
	 viewBox="0 0 164.2 80.7" style="enable-background:new 0 0 164.2 80.7;" xml:space="preserve">
<style type="text/css">
	.st0{clip-path:url(#SVGID_2_);}
	.st1{fill:#134332;}
</style>
<g id="Слой_2_1_">
	<g id="Layer_1">
		<g>
			<g>
				<defs>
					<rect id="SVGID_1_" x="0" width="164.6" height="80.7"/>
				</defs>
				<clipPath id="SVGID_2_">
					<use xlink:href="#SVGID_1_"  style="overflow:visible;"/>
				</clipPath>
				<g class="st0">
					<path class="st1" d="M42.9,79.6c1.4-1.4,1.4-3.8,0-5.2l-30-30.3h148c2,0,3.7-1.7,3.7-3.7s-1.6-3.7-3.7-3.7H12.8l30-30.3
						c1.4-1.4,1.4-3.8,0-5.2c-1.4-1.4-3.7-1.4-5.2,0l0,0L1.4,37.7c-1.4,1.5-1.4,3.8,0,5.2l36.3,36.7C39.1,81.1,41.4,81.1,42.9,79.6
						C42.8,79.6,42.9,79.6,42.9,79.6C44.3,78.2,41.4,81.1,42.9,79.6z"/>
				</g>
			</g>
		</g>
	</g>
</g>
</svg>
