<?xml version="1.0" encoding="utf-8"?>
<!-- Generator: Adobe Illustrator 24.3.0, SVG Export Plug-In . SVG Version: 6.00 Build 0)  -->
<svg version="1.1" id="Capa_1" xmlns="http://www.w3.org/2000/svg" xmlns:xlink="http://www.w3.org/1999/xlink" x="0px" y="0px"
	 viewBox="0 0 512 512" style="enable-background:new 0 0 512 512;" xml:space="preserve">
<style type="text/css">
	.st0{fill:#134332;}
</style>
<g>
	<g>
		<path class="st0" d="M496.9,0H15.1C6.7,0,0,6.7,0,15.1v481.9c0,8.3,6.7,15.1,15.1,15.1h481.9c8.3,0,15.1-6.7,15.1-15.1V15.1
			C512,6.7,505.3,0,496.9,0z M481.9,481.9H30.1V30.1h451.8V481.9z"/>
		<path class="st0" d="M79.3,182.7h144.6c8.3,0,15.1-6.7,15.1-15.1s-6.7-15.1-15.1-15.1c-15.2,0-128.1,0-144.6,0
			c-8.3,0-15.1,6.7-15.1,15.1S71,182.7,79.3,182.7z"/>
		<path class="st0" d="M206.2,227.5c-3-9.1-12.5-12.7-20.2-9.5c-8,3.4-11.2,12.4-8.1,19.7c3.4,8.1,12.4,11.2,19.7,8.1
			C204.5,242.8,208.4,235.2,206.2,227.5z"/>
		<path class="st0" d="M79.3,311.2h144.6c8.3,0,15.1-6.7,15.1-15.1s-6.7-15.1-15.1-15.1H79.3c-8.3,0-15.1,6.7-15.1,15.1
			S71,311.2,79.3,311.2z"/>
		<path class="st0" d="M79.3,439.7h144.6c8.3,0,15.1-6.7,15.1-15.1c0-8.3-6.7-15.1-15.1-15.1H79.3c-8.3,0-15.1,6.7-15.1,15.1
			C64.3,433,71,439.7,79.3,439.7z"/>
		<path class="st0" d="M432.7,409.6H288.1c-8.3,0-15.1,6.7-15.1,15.1s6.7,15.1,15.1,15.1h144.6c8.3,0,15.1-6.7,15.1-15.1
			S441,409.6,432.7,409.6L432.7,409.6z"/>
		<path class="st0" d="M79.3,247h48.2c8.3,0,15.1-6.7,15.1-15.1c0-8.3-6.7-15.1-15.1-15.1H79.3c-8.3,0-15.1,6.7-15.1,15.1
			C64.3,240.2,71,247,79.3,247z"/>
		<path class="st0" d="M64.5,363.3c1.7,8.1,9.3,13.4,17.7,11.8c8.2-1.7,13.4-9.4,11.8-17.7c-1.9-8.9-10.7-14-19.1-11.5
			C67,348.6,63.2,356,64.5,363.3z"/>
		<path class="st0" d="M223.9,345.3h-80.3c-8.3,0-15.1,6.7-15.1,15.1c0,8.3,6.7,15.1,15.1,15.1h80.3c8.3,0,15.1-6.7,15.1-15.1
			C238.9,352.1,232.2,345.3,223.9,345.3z"/>
		<path class="st0" d="M305.8,236.3c2.8,8.6,11.3,12.3,18.8,10c8.8-2.9,12.2-11.6,10-18.8c-2.5-8.5-12-13-20.2-9.5
			C307.3,221,303.6,228.8,305.8,236.3L305.8,236.3z"/>
		<path class="st0" d="M432.7,281.1H288.1c-8.3,0-15.1,6.7-15.1,15.1c0,8.3,6.7,15.1,15.1,15.1h144.6c8.3,0,15.1-6.7,15.1-15.1
			C447.7,287.8,441,281.1,432.7,281.1L432.7,281.1z"/>
		<path class="st0" d="M432.7,216.8h-48.2c-8.3,0-15.1,6.7-15.1,15.1s6.7,15.1,15.1,15.1h48.2c8.3,0,15.1-6.7,15.1-15.1
			S441,216.8,432.7,216.8z"/>
		<path class="st0" d="M288.1,152.6c-8.3,0-15.1,6.7-15.1,15.1s6.7,15.1,15.1,15.1h144.6c8.3,0,15.1-6.7,15.1-15.1
			s-6.7-15.1-15.1-15.1C416.4,152.6,303.2,152.6,288.1,152.6z"/>
		<path class="st0" d="M447.5,357.5c-1.9-8.9-10.7-14-19.1-11.5c-8.6,2.8-12.3,11.3-10,18.8c2.8,8.6,11.3,12.3,18.8,10
			C445,372.2,448.8,364.8,447.5,357.5z"/>
		<path class="st0" d="M288.1,375.5h80.3c8.3,0,15.1-6.7,15.1-15.1s-6.7-15.1-15.1-15.1h-80.3c-8.3,0-15.1,6.7-15.1,15.1
			C273.1,368.7,279.8,375.5,288.1,375.5z"/>
		<path class="st0" d="M127.5,94.4h257c8.3,0,15.1-6.7,15.1-15.1s-6.7-15.1-15.1-15.1h-257c-8.3,0-15.1,6.7-15.1,15.1
			S119.2,94.4,127.5,94.4z"/>
	</g>
</g>
</svg>
