<svg xmlns="http://www.w3.org/2000/svg" viewBox="0 0 80.48 80.49"><g id="Слой_2" data-name="Слой 2"><g id="Layer_1" data-name="Layer 1"><path d="M0,30.17C.61,17.57,6.37,8.26,17.83,2.73A27.6,27.6,0,0,1,34.11.33c11.46,1.71,19.48,8,24.08,18.6a28.59,28.59,0,0,1,2,14.84,28.79,28.79,0,0,1-2.32,8.54,28,28,0,0,1-3.43,5.86c-.3.39-.31.61.06,1q12.23,12.2,24.43,24.41a4.49,4.49,0,0,1,1.52,2.56,3.77,3.77,0,0,1-6.39,3.27c-2.18-2.15-4.35-4.33-6.52-6.5L49.08,54.42a.51.51,0,0,0-.81-.06,29.88,29.88,0,0,1-23,5.6,29.69,29.69,0,0,1-17.3-9.44,29.4,29.4,0,0,1-7-13.06c-.23-.93-.42-1.88-.57-2.83A43.72,43.72,0,0,1,0,30.17Zm7.62,0A22.61,22.61,0,1,0,30.46,7.61,22.56,22.56,0,0,0,7.62,30.16Z"/></g></g></svg>