<svg xmlns="http://www.w3.org/2000/svg" viewBox="0 0 81.95 82.06"><g id="Слой_2" data-name="Слой 2"><g id="Layer_1" data-name="Layer 1"><path d="M40.75,82H3.25A11,11,0,0,1,1.73,82,1.74,1.74,0,0,1,0,80.11,34.08,34.08,0,0,1,2.64,65.9,36.37,36.37,0,0,1,14,50.67a35,35,0,0,1,17.47-7.48,67.46,67.46,0,0,1,19.71.12,35.55,35.55,0,0,1,23,13.77A34.92,34.92,0,0,1,82,79.23c0,2.06-.67,2.77-2.83,2.8-3.77,0-7.54,0-11.31,0H40.75ZM41,77.71H75.34c2.6,0,2.66-.09,2.23-2.71A32.81,32.81,0,0,0,66.94,55.33a32,32,0,0,0-19-8.22,94.64,94.64,0,0,0-13.68,0,30,30,0,0,0-11.77,3.18A32.46,32.46,0,0,0,8,64.22a31.13,31.13,0,0,0-3.7,11.85c-.16,1.58-.06,1.63,1.57,1.64Z"/><path d="M41,0C51.3-.43,60.85,8.76,60.63,19.91a19.65,19.65,0,0,1-39.3-.28C21.3,8.88,30.41-.36,41,0ZM56.39,19.57c.19-7.91-6.7-15.41-15.5-15.43-8,0-15.38,7-15.33,15.27a15.42,15.42,0,1,0,30.83.16Z"/></g></g></svg>