<svg xmlns="http://www.w3.org/2000/svg" viewBox="0 0 68.68 79.16"><g id="Слой_2" data-name="Слой 2"><g id="Layer_1" data-name="Layer 1"><path d="M34.35,0H66.82c1.49,0,1.94.5,1.84,2a9.22,9.22,0,0,1-9.28,8.69c-6.41,0-12.82,0-19.23,0a6.94,6.94,0,0,1-.79,0c-.68-.07-1,.2-.93.9,0,1.14.06,2.29,0,3.44-.05.81.32,1.06,1,1.18A25.83,25.83,0,0,1,46,18.06C56.42,22.71,62.57,30.68,64.21,42c.57,3.89.73,7.83,1.08,11.75Q66,61.3,66.65,68.84c.25,2.81.5,5.61.72,8.42.11,1.34-.43,1.9-1.79,1.9H3.12c-1.38,0-1.91-.6-1.79-2L2.92,59c.47-5.41.88-10.82,1.42-16.23A29.93,29.93,0,0,1,27.26,16.61c.75-.18,1.5-.34,2.25-.45.59-.09.78-.37.76-.95,0-1.17-.05-2.35,0-3.53,0-.79-.27-1-1-1q-9.93,0-19.85,0A9.31,9.31,0,0,1,.16,3.13c0-.11,0-.23-.07-.34C-.22.5.21,0,2.51,0Zm-.06,76.39q14.55,0,29.1,0c.72,0,1-.07,1-.94-.4-4-.72-8-1.07-12L61.5,43.09a24.9,24.9,0,0,0-4-11.8c-6.23-9.3-15-13.52-26.16-12.46C23.17,19.6,16.76,23.57,12,30.15,8.5,35,7.23,40.47,6.87,46.3c-.28,4.42-.72,8.83-1.1,13.25-.45,5.26-.9,10.53-1.4,15.79-.08.86.12,1.07,1,1.07C15,76.38,24.65,76.39,34.29,76.39Zm.06-73.62H4.63c-.32,0-.65,0-1,0-.58,0-.64.23-.47.7A6.4,6.4,0,0,0,4.53,5.73,6.85,6.85,0,0,0,10,7.84q24.35,0,48.68,0c.39,0,.77,0,1.15,0a6.18,6.18,0,0,0,5.51-3.91c.48-1,.4-1.11-.74-1.11ZM33.16,13.21v1c0,1.66,0,1.64,1.65,1.57.52,0,.75-.2.74-.73,0-1,0-2,0-3.07,0-1.25,0-1.2-1.25-1.26-.87,0-1.25.21-1.14,1.12A10.9,10.9,0,0,1,33.16,13.21Z"/><path d="M34.36,23.66A23.82,23.82,0,1,1,10.51,47.44,23.89,23.89,0,0,1,34.36,23.66Zm2.07,44.69a20.91,20.91,0,0,0,10.14-3.83c1.6-1.16,1.58-1.15.24-2.53-1.65-1.7-1.78-1.07.12-3a.57.57,0,0,1,1,0c.55.57,1.15,1.1,1.67,1.7s.74.43,1.15-.08a21.24,21.24,0,0,0,4.53-10.93c.07-.58-.17-.73-.68-.73-.76,0-1.53,0-2.29,0s-.88-.25-.87-.9c0-2.31-.23-2,2-2,.12,0,.24,0,.36,0,1.57,0,1.62,0,1.4-1.52a20.32,20.32,0,0,0-4.45-10.22c-.37-.45-.65-.47-1,0-.55.61-1.16,1.17-1.74,1.75-.29.31-.63.41-.89,0-.43-.63-1.48-.84-1.32-1.87,0-.14.23-.26.35-.39.5-.5,1-1,1.5-1.49s.5-.77-.06-1.21a21.39,21.39,0,0,0-10.86-4.48c-.58-.08-.81.13-.79.71,0,.79,0,1.59,0,2.38,0,.5-.21.75-.74.75-2.52,0-2.12.21-2.16-2v-.26c0-1.65,0-1.69-1.65-1.46a20.59,20.59,0,0,0-10.12,4.45c-.43.34-.48.59-.06,1,.62.58,1.2,1.21,1.81,1.8.31.3.41.63,0,.89-.63.44-.84,1.48-1.87,1.32-.15,0-.27-.22-.39-.35L19.4,34.6c-.88-.88-.87-.87-1.63.07A19.58,19.58,0,0,0,13.68,44c-.36,2.29-.76,2,1.67,2.05,2.18,0,1.93-.36,2,2.08,0,.56-.22.8-.77.8-.83,0-1.65,0-2.47,0-.5,0-.66.22-.59.72a20.88,20.88,0,0,0,3.89,10.08c1.15,1.55,1.13,1.53,2.52.18,1.68-1.62,1.06-1.73,3,.1a.61.61,0,0,1,0,1c-.56.53-1.06,1.11-1.64,1.61s-.51.77.06,1.22a21.08,21.08,0,0,0,9.56,4.26c2.08.34,2.07.35,2.07-1.76s.17-2.14,2.16-1.92c.49,0,.75.25.74.77,0,.77,0,1.53,0,2.29S36,68.5,36.43,68.35Z"/><path d="M35.8,39.07c0,1.76,0,3.52,0,5.28a1.65,1.65,0,0,0,.5,1.25,2.71,2.71,0,0,1-.06,3.87,2.76,2.76,0,0,1-3.75,0,2.69,2.69,0,0,1-.07-3.86,1.74,1.74,0,0,0,.5-1.34c0-3.43,0-6.87,0-10.3,0-.83.25-1.14,1.11-1.13,1.8,0,1.8,0,1.8,1.83Z"/></g></g></svg>