<?xml version="1.0" encoding="utf-8"?>
<!-- Generator: Adobe Illustrator 24.3.0, SVG Export Plug-In . SVG Version: 6.00 Build 0)  -->
<svg version="1.1" id="Слой_1" xmlns="http://www.w3.org/2000/svg" xmlns:xlink="http://www.w3.org/1999/xlink" x="0px" y="0px"
	 viewBox="0 0 67.9 69.1" style="enable-background:new 0 0 67.9 69.1;" xml:space="preserve">
<style type="text/css">
	.st0{fill:#134332;}
</style>
<g id="Слой_2_1_">
	<g id="Layer_1">
		<g id="_8Z3SjX">
			<path class="st0" d="M5.6,69.1c0.3-1,0.5-2,0.8-3c0.7-3.1,1.5-6.1,2.2-9.2c0.1-0.4-0.1-0.6-0.3-0.8c-0.9-0.9-1.6-1.9-2.3-3
				C4.3,50.6,3,48.1,2,45.4c-1-2.8-1.6-5.7-1.9-8.6c-0.4-4.4,0.1-8.8,1.4-12.9c0.9-2.8,2.1-5.4,3.6-7.9c1.1-1.7,2.3-3.4,3.7-4.9
				c1.9-2.1,4-3.9,6.4-5.4C20.3,2.3,26,0.4,32,0.1C49.1-1,64.3,11,67.4,27.8c0.5,2.5,0.6,5.1,0.5,7.6c-0.3,7.2-2.9,14-7.4,19.6
				c-5.5,7-13.6,11.4-22.5,12.5c-1.8,0.2-3.6,0.3-5.4,0.2c-3.2-0.1-6.4-0.7-9.4-1.7c-1.7-0.6-3.4-1.3-5-2.2c-0.3-0.2-0.7-0.2-1,0
				c-1.7,0.8-3.4,1.5-5.1,2.3l-6.3,2.9L5.6,69.1z M46.9,54.2c0.8,0,1.7,0,2.5-0.3c1.3-0.4,2.4-1.1,3.3-2.1c1.2-0.9,2.1-2.1,2.7-3.5
				c0.6-1.4,0.1-3.6-1.3-4.2c-1-0.5-1.9-1-2.9-1.4c-2.2-0.8-4.5-1.5-6.7-2.3c-0.2-0.1-0.4,0-0.5,0.1c-1.1,1-2.2,2-3.3,3.1
				c-0.3,0.3-0.8,0.4-1.2,0.2c-1.8-0.8-3.6-1.9-5.1-3.2c-1.4-1.1-2.6-2.4-3.8-3.7c-1.7-1.9-3.2-3.9-4.5-6c-0.1-0.1-0.1-0.3,0-0.4
				c0,0,0,0,0,0c1-1,1.9-2,2.9-2.9c1.1-0.9,1.4-2.5,0.7-3.7c-0.8-1.7-1.7-3.4-2.6-5c-0.6-1.1-1.2-2.2-2-3.2
				c-0.6-0.7-0.7-0.8-1.6-0.4l-0.3,0.1c-2,1.1-3.8,2.5-5.4,4.1c-1.1,1-1.6,2.5-1.4,4c0,0.6,0.1,1.2,0.2,1.8c0.3,1.7,0.7,3.4,1.2,5.1
				c0.6,1.7,1.4,3.4,2.3,5c0.5,1,1.1,2,1.8,2.9c1.1,1.7,2.4,3.2,3.7,4.6c0.8,0.9,1.7,1.7,2.6,2.5c1.6,1.5,3.4,2.8,5.3,3.9
				c2.2,1.4,4.6,2.5,7,3.4C42.6,53.7,44.7,54.2,46.9,54.2z"/>
		</g>
	</g>
</g>
</svg>
