<svg xmlns="http://www.w3.org/2000/svg" viewBox="0 0 67.92 69.13"><defs><style>.cls-1{fill:#fff;}</style></defs><g id="Слой_2" data-name="Слой 2"><g id="Layer_1" data-name="Layer 1"><g id="_8Z3SjX" data-name="8Z3SjX"><path class="cls-1" d="M5.57,69.05c.26-1,.52-2,.76-3,.74-3.07,1.46-6.14,2.2-9.21.1-.39-.13-.62-.34-.85a22.93,22.93,0,0,1-2.31-3A33.53,33.53,0,0,1,2,45.37a34.34,34.34,0,0,1-1.87-8.6,33.09,33.09,0,0,1,1.4-12.93,32.4,32.4,0,0,1,3.64-7.91A35.69,35.69,0,0,1,8.9,11a34.52,34.52,0,0,1,6.37-5.44A33.28,33.28,0,0,1,32,.05,33.9,33.9,0,0,1,67.36,27.84a32.57,32.57,0,0,1,.52,7.63,33.93,33.93,0,0,1-7.41,19.64A33.7,33.7,0,0,1,38,67.58a34,34,0,0,1-5.43.23,33.59,33.59,0,0,1-9.41-1.71,37.9,37.9,0,0,1-5-2.16,1,1,0,0,0-1,0c-1.7.79-3.42,1.54-5.13,2.31L5.69,69.13ZM46.88,54.22a7.24,7.24,0,0,0,2.49-.29,8.74,8.74,0,0,0,3.35-2.09,10.32,10.32,0,0,0,2.74-3.47c.56-1.39.08-3.56-1.28-4.23-1-.48-1.93-1-2.94-1.38-2.22-.83-4.47-1.55-6.71-2.29a.41.41,0,0,0-.48.09c-1.09,1-2.22,2-3.3,3.08a1,1,0,0,1-1.19.25,20.29,20.29,0,0,1-5.1-3.15,32.94,32.94,0,0,1-3.79-3.68,51.2,51.2,0,0,1-4.52-6,.27.27,0,0,1,.05-.41c1-1,1.87-2,2.88-2.89a2.9,2.9,0,0,0,.7-3.73c-.82-1.71-1.73-3.37-2.64-5a21.77,21.77,0,0,0-2-3.21c-.59-.74-.72-.78-1.59-.4l-.3.15a20.91,20.91,0,0,0-5.38,4.1,4.81,4.81,0,0,0-1.38,4c.05.59.11,1.18.21,1.77a29.53,29.53,0,0,0,1.24,5.09,38.54,38.54,0,0,0,2.26,5c.54,1,1.14,2,1.77,2.89a34.06,34.06,0,0,0,3.74,4.64c.83.87,1.69,1.69,2.58,2.5a37.29,37.29,0,0,0,5.28,3.93,36.8,36.8,0,0,0,7,3.41A17.75,17.75,0,0,0,46.88,54.22Z"/></g></g></g></svg>